<svg xmlns="http://www.w3.org/2000/svg" style="display:none">

  <!-- ═══════════════════════════════════════════
       NAVIGATION ICONS
  ═══════════════════════════════════════════ -->

  <symbol id="icon-home" viewBox="0 0 24 24" fill="none"
          stroke="currentColor" stroke-width="2"
          stroke-linecap="round" stroke-linejoin="round">
    <path d="M3 9.5L12 3l9 6.5V20a1 1 0 0 1-1 1H5a1 1 0 0 1-1-1V9.5z"/>
    <polyline points="9 21 9 12 15 12 15 21"/>
  </symbol>

  <symbol id="icon-browse" viewBox="0 0 24 24" fill="none"
          stroke="currentColor" stroke-width="2"
          stroke-linecap="round" stroke-linejoin="round">
    <rect x="3" y="3" width="7" height="7" rx="1"/>
    <rect x="14" y="3" width="7" height="7" rx="1"/>
    <rect x="3" y="14" width="7" height="7" rx="1"/>
    <rect x="14" y="14" width="7" height="7" rx="1"/>
  </symbol>

  <symbol id="icon-analytics" viewBox="0 0 24 24" fill="none"
          stroke="currentColor" stroke-width="2"
          stroke-linecap="round" stroke-linejoin="round">
    <line x1="18" y1="20" x2="18" y2="10"/>
    <line x1="12" y1="20" x2="12" y2="4"/>
    <line x1="6"  y1="20" x2="6"  y2="14"/>
    <line x1="2"  y1="20" x2="22" y2="20"/>
  </symbol>

  <symbol id="icon-bookmarks" viewBox="0 0 24 24" fill="none"
          stroke="currentColor" stroke-width="2"
          stroke-linecap="round" stroke-linejoin="round">
    <path d="M6 3h12a1 1 0 0 1 1 1v17l-7-3.5L5 21V4a1 1 0 0 1 1-1z"/>
    <line x1="9" y1="9" x2="15" y2="9"/>
    <line x1="9" y1="12" x2="13" y2="12"/>
  </symbol>

  <symbol id="icon-history" viewBox="0 0 24 24" fill="none"
          stroke="currentColor" stroke-width="2"
          stroke-linecap="round" stroke-linejoin="round">
    <polyline points="1 4 1 10 7 10"/>
    <path d="M3.51 15a9 9 0 1 0 .49-4.5"/>
    <polyline points="12 7 12 12 15 14"/>
  </symbol>

  <symbol id="icon-settings" viewBox="0 0 24 24" fill="none"
          stroke="currentColor" stroke-width="2"
          stroke-linecap="round" stroke-linejoin="round">
    <circle cx="12" cy="12" r="3"/>
    <path d="M19.4 15a1.65 1.65 0 0 0 .33 1.82l.06.06a2 2 0 0 1-2.83 2.83l-.06-.06
             a1.65 1.65 0 0 0-1.82-.33 1.65 1.65 0 0 0-1 1.51V21a2 2 0 0 1-4 0v-.09
             A1.65 1.65 0 0 0 9 19.4a1.65 1.65 0 0 0-1.82.33l-.06.06
             a2 2 0 0 1-2.83-2.83l.06-.06A1.65 1.65 0 0 0 4.68 15
             a1.65 1.65 0 0 0-1.51-1H3a2 2 0 0 1 0-4h.09
             A1.65 1.65 0 0 0 4.6 9a1.65 1.65 0 0 0-.33-1.82l-.06-.06
             a2 2 0 0 1 2.83-2.83l.06.06A1.65 1.65 0 0 0 9 4.68
             a1.65 1.65 0 0 0 1-1.51V3a2 2 0 0 1 4 0v.09
             a1.65 1.65 0 0 0 1 1.51 1.65 1.65 0 0 0 1.82-.33l.06-.06
             a2 2 0 0 1 2.83 2.83l-.06.06A1.65 1.65 0 0 0 19.4 9
             a1.65 1.65 0 0 0 1.51 1H21a2 2 0 0 1 0 4h-.09
             a1.65 1.65 0 0 0-1.51 1z"/>
  </symbol>

  <symbol id="icon-search" viewBox="0 0 24 24" fill="none"
          stroke="currentColor" stroke-width="2"
          stroke-linecap="round" stroke-linejoin="round">
    <circle cx="11" cy="11" r="8"/>
    <line x1="21" y1="21" x2="16.65" y2="16.65"/>
  </symbol>

  <symbol id="icon-menu" viewBox="0 0 24 24" fill="none"
          stroke="currentColor" stroke-width="2"
          stroke-linecap="round" stroke-linejoin="round">
    <line x1="3" y1="6"  x2="21" y2="6"/>
    <line x1="3" y1="12" x2="21" y2="12"/>
    <line x1="3" y1="18" x2="21" y2="18"/>
  </symbol>

  <symbol id="icon-close" viewBox="0 0 24 24" fill="none"
          stroke="currentColor" stroke-width="2"
          stroke-linecap="round" stroke-linejoin="round">
    <line x1="18" y1="6"  x2="6"  y2="18"/>
    <line x1="6"  y1="6"  x2="18" y2="18"/>
  </symbol>

  <symbol id="icon-back" viewBox="0 0 24 24" fill="none"
          stroke="currentColor" stroke-width="2"
          stroke-linecap="round" stroke-linejoin="round">
    <line x1="19" y1="12" x2="5" y2="12"/>
    <polyline points="12 19 5 12 12 5"/>
  </symbol>

  <symbol id="icon-forward" viewBox="0 0 24 24" fill="none"
          stroke="currentColor" stroke-width="2"
          stroke-linecap="round" stroke-linejoin="round">
    <line x1="5" y1="12" x2="19" y2="12"/>
    <polyline points="12 5 19 12 12 19"/>
  </symbol>

  <!-- ═══════════════════════════════════════════
       QUIZ AND QUESTION ICONS
  ═══════════════════════════════════════════ -->

  <symbol id="icon-bookmark" viewBox="0 0 24 24" fill="none"
          stroke="currentColor" stroke-width="2"
          stroke-linecap="round" stroke-linejoin="round">
    <path d="M6 3h12a1 1 0 0 1 1 1v17l-7-3.5L5 21V4a1 1 0 0 1 1-1z"/>
  </symbol>

  <symbol id="icon-bookmark-filled" viewBox="0 0 24 24"
          fill="currentColor" stroke="currentColor" stroke-width="2"
          stroke-linecap="round" stroke-linejoin="round">
    <path d="M6 3h12a1 1 0 0 1 1 1v17l-7-3.5L5 21V4a1 1 0 0 1 1-1z"/>
  </symbol>

  <symbol id="icon-flag" viewBox="0 0 24 24" fill="none"
          stroke="currentColor" stroke-width="2"
          stroke-linecap="round" stroke-linejoin="round">
    <path d="M4 15s1-1 4-1 5 2 8 2 4-1 4-1V3s-1 1-4 1-5-2-8-2-4 1-4 1z"/>
    <line x1="4" y1="22" x2="4" y2="15"/>
  </symbol>

  <symbol id="icon-flag-filled" viewBox="0 0 24 24"
          fill="currentColor" stroke="currentColor" stroke-width="2"
          stroke-linecap="round" stroke-linejoin="round">
    <path d="M4 15s1-1 4-1 5 2 8 2 4-1 4-1V3s-1 1-4 1-5-2-8-2-4 1-4 1z"/>
    <line x1="4" y1="22" x2="4" y2="15"/>
  </symbol>

  <symbol id="icon-timer" viewBox="0 0 24 24" fill="none"
          stroke="currentColor" stroke-width="2"
          stroke-linecap="round" stroke-linejoin="round">
    <circle cx="12" cy="13" r="8"/>
    <polyline points="12 9 12 13 15 15"/>
    <path d="M9 3h6"/>
    <line x1="12" y1="3" x2="12" y2="5"/>
  </symbol>

  <symbol id="icon-timer-warning" viewBox="0 0 24 24" fill="none"
          stroke="currentColor" stroke-width="2"
          stroke-linecap="round" stroke-linejoin="round">
    <circle cx="12" cy="13" r="8"/>
    <polyline points="12 9 12 13 15 15"/>
    <path d="M9 3h6"/>
    <line x1="12" y1="3" x2="12" y2="5"/>
    <line x1="12" y1="17" x2="12" y2="17.5" stroke-width="2.5"/>
  </symbol>

  <symbol id="icon-palette" viewBox="0 0 24 24" fill="none"
          stroke="currentColor" stroke-width="2"
          stroke-linecap="round" stroke-linejoin="round">
    <rect x="3" y="3"   width="4" height="4" rx="0.5"/>
    <rect x="10" y="3"  width="4" height="4" rx="0.5"/>
    <rect x="17" y="3"  width="4" height="4" rx="0.5"/>
    <rect x="3" y="10"  width="4" height="4" rx="0.5"/>
    <rect x="10" y="10" width="4" height="4" rx="0.5"/>
    <rect x="17" y="10" width="4" height="4" rx="0.5"/>
    <rect x="3" y="17"  width="4" height="4" rx="0.5"/>
    <rect x="10" y="17" width="4" height="4" rx="0.5"/>
    <rect x="17" y="17" width="4" height="4" rx="0.5"/>
  </symbol>

  <symbol id="icon-next" viewBox="0 0 24 24" fill="none"
          stroke="currentColor" stroke-width="2"
          stroke-linecap="round" stroke-linejoin="round">
    <polyline points="9 18 15 12 9 6"/>
  </symbol>

  <symbol id="icon-previous" viewBox="0 0 24 24" fill="none"
          stroke="currentColor" stroke-width="2"
          stroke-linecap="round" stroke-linejoin="round">
    <polyline points="15 18 9 12 15 6"/>
  </symbol>

  <symbol id="icon-skip" viewBox="0 0 24 24" fill="none"
          stroke="currentColor" stroke-width="2"
          stroke-linecap="round" stroke-linejoin="round">
    <polyline points="5 18 11 12 5 6"/>
    <polyline points="12 18 18 12 12 6"/>
  </symbol>

  <symbol id="icon-submit" viewBox="0 0 24 24" fill="none"
          stroke="currentColor" stroke-width="2"
          stroke-linecap="round" stroke-linejoin="round">
    <polyline points="20 6 9 17 4 12"/>
    <path d="M22 2L11 13"/>
    <path d="M22 2L15 22 11 13 2 9l20-7z"/>
  </symbol>

  <symbol id="icon-pause" viewBox="0 0 24 24" fill="none"
          stroke="currentColor" stroke-width="2"
          stroke-linecap="round" stroke-linejoin="round">
    <rect x="6"  y="4" width="4" height="16" rx="1"/>
    <rect x="14" y="4" width="4" height="16" rx="1"/>
  </symbol>

  <symbol id="icon-play" viewBox="0 0 24 24" fill="none"
          stroke="currentColor" stroke-width="2"
          stroke-linecap="round" stroke-linejoin="round">
    <polygon points="5 3 19 12 5 21 5 3"/>
  </symbol>

  <!-- ═══════════════════════════════════════════
       STATUS INDICATOR ICONS
  ═══════════════════════════════════════════ -->

  <symbol id="icon-check" viewBox="0 0 24 24" fill="none"
          stroke="currentColor" stroke-width="2.5"
          stroke-linecap="round" stroke-linejoin="round">
    <polyline points="20 6 9 17 4 12"/>
  </symbol>

  <symbol id="icon-cross" viewBox="0 0 24 24" fill="none"
          stroke="currentColor" stroke-width="2.5"
          stroke-linecap="round" stroke-linejoin="round">
    <line x1="18" y1="6"  x2="6"  y2="18"/>
    <line x1="6"  y1="6"  x2="18" y2="18"/>
  </symbol>

  <symbol id="icon-circle-empty" viewBox="0 0 24 24" fill="none"
          stroke="currentColor" stroke-width="2"
          stroke-linecap="round" stroke-linejoin="round">
    <circle cx="12" cy="12" r="9"/>
  </symbol>

  <symbol id="icon-circle-filled" viewBox="0 0 24 24"
          fill="currentColor" stroke="currentColor" stroke-width="2"
          stroke-linecap="round" stroke-linejoin="round">
    <circle cx="12" cy="12" r="9"/>
  </symbol>

  <symbol id="icon-circle-dot" viewBox="0 0 24 24" fill="none"
          stroke="currentColor" stroke-width="2"
          stroke-linecap="round" stroke-linejoin="round">
    <circle cx="12" cy="12" r="9"/>
    <circle cx="12" cy="12" r="3" fill="currentColor"/>
  </symbol>

  <!-- ═══════════════════════════════════════════
       RESULTS AND SCORE ICONS
  ═══════════════════════════════════════════ -->

  <symbol id="icon-trophy" viewBox="0 0 24 24" fill="none"
          stroke="currentColor" stroke-width="2"
          stroke-linecap="round" stroke-linejoin="round">
    <path d="M6 9H3V4h3M18 9h3V4h-3"/>
    <path d="M6 4h12v7a6 6 0 0 1-12 0V4z"/>
    <path d="M9 17v2M15 17v2M9 19h6"/>
    <path d="M7 21h10"/>
  </symbol>

  <symbol id="icon-star" viewBox="0 0 24 24" fill="none"
          stroke="currentColor" stroke-width="2"
          stroke-linecap="round" stroke-linejoin="round">
    <polygon points="12 2 15.09 8.26 22 9.27 17 14.14 18.18 21.02
                     12 17.77 5.82 21.02 7 14.14 2 9.27 8.91 8.26 12 2"/>
  </symbol>

  <symbol id="icon-star-filled" viewBox="0 0 24 24"
          fill="currentColor" stroke="currentColor" stroke-width="2"
          stroke-linecap="round" stroke-linejoin="round">
    <polygon points="12 2 15.09 8.26 22 9.27 17 14.14 18.18 21.02
                     12 17.77 5.82 21.02 7 14.14 2 9.27 8.91 8.26 12 2"/>
  </symbol>

  <symbol id="icon-improvement-up" viewBox="0 0 24 24" fill="none"
          stroke="currentColor" stroke-width="2"
          stroke-linecap="round" stroke-linejoin="round">
    <polyline points="23 6 13.5 15.5 8.5 10.5 1 18"/>
    <polyline points="17 6 23 6 23 12"/>
  </symbol>

  <symbol id="icon-improvement-down" viewBox="0 0 24 24" fill="none"
          stroke="currentColor" stroke-width="2"
          stroke-linecap="round" stroke-linejoin="round">
    <polyline points="23 18 13.5 8.5 8.5 13.5 1 6"/>
    <polyline points="17 18 23 18 23 12"/>
  </symbol>

  <symbol id="icon-streak" viewBox="0 0 24 24" fill="none"
          stroke="currentColor" stroke-width="2"
          stroke-linecap="round" stroke-linejoin="round">
    <path d="M13 2L3 14h9l-1 8 10-12h-9l1-8z"/>
  </symbol>

  <symbol id="icon-calendar" viewBox="0 0 24 24" fill="none"
          stroke="currentColor" stroke-width="2"
          stroke-linecap="round" stroke-linejoin="round">
    <rect x="3" y="4" width="18" height="18" rx="2"/>
    <line x1="16" y1="2" x2="16" y2="6"/>
    <line x1="8"  y1="2" x2="8"  y2="6"/>
    <line x1="3"  y1="10" x2="21" y2="10"/>
  </symbol>

  <symbol id="icon-clock" viewBox="0 0 24 24" fill="none"
          stroke="currentColor" stroke-width="2"
          stroke-linecap="round" stroke-linejoin="round">
    <circle cx="12" cy="12" r="10"/>
    <polyline points="12 6 12 12 16 14"/>
  </symbol>

  <symbol id="icon-target" viewBox="0 0 24 24" fill="none"
          stroke="currentColor" stroke-width="2"
          stroke-linecap="round" stroke-linejoin="round">
    <circle cx="12" cy="12" r="10"/>
    <circle cx="12" cy="12" r="6"/>
    <circle cx="12" cy="12" r="2"/>
  </symbol>

  <symbol id="icon-accuracy" viewBox="0 0 24 24" fill="none"
          stroke="currentColor" stroke-width="2"
          stroke-linecap="round" stroke-linejoin="round">
    <path d="M22 11.08V12a10 10 0 1 1-5.93-9.14"/>
    <polyline points="22 4 12 14.01 9 11.01"/>
  </symbol>

  <!-- ═══════════════════════════════════════════
       SUBJECT ICONS
  ═══════════════════════════════════════════ -->

  <symbol id="icon-subject-awareness" viewBox="0 0 24 24" fill="none"
          stroke="currentColor" stroke-width="2"
          stroke-linecap="round" stroke-linejoin="round">
    <circle cx="12" cy="12" r="10"/>
    <line x1="2"  y1="12" x2="22" y2="12"/>
    <path d="M12 2a15.3 15.3 0 0 1 4 10 15.3 15.3 0 0 1-4 10
             15.3 15.3 0 0 1-4-10 15.3 15.3 0 0 1 4-10z"/>
  </symbol>

  <symbol id="icon-subject-math" viewBox="0 0 24 24" fill="none"
          stroke="currentColor" stroke-width="2"
          stroke-linecap="round" stroke-linejoin="round">
    <line x1="12" y1="3"  x2="12" y2="21"/>
    <line x1="3"  y1="12" x2="21" y2="12"/>
    <line x1="5.5" y1="5.5" x2="18.5" y2="18.5"/>
    <line x1="18.5" y1="5.5" x2="5.5" y2="18.5"/>
  </symbol>

  <symbol id="icon-subject-reasoning" viewBox="0 0 24 24" fill="none"
          stroke="currentColor" stroke-width="2"
          stroke-linecap="round" stroke-linejoin="round">
    <path d="M9.09 9a3 3 0 0 1 5.83 1c0 2-3 3-3 3"/>
    <line x1="12" y1="17" x2="12" y2="17.5" stroke-width="2.5"/>
    <circle cx="12" cy="12" r="10"/>
  </symbol>

  <!-- ═══════════════════════════════════════════
       DIFFICULTY ICONS
  ═══════════════════════════════════════════ -->

  <symbol id="icon-difficulty-easy" viewBox="0 0 24 24" fill="none"
          stroke="currentColor" stroke-width="2"
          stroke-linecap="round" stroke-linejoin="round">
    <circle cx="12" cy="12" r="9"/>
    <path d="M8 14s1.5 2 4 2 4-2 4-2"/>
    <line x1="9"  y1="9"  x2="9.01"  y2="9"/>
    <line x1="15" y1="9"  x2="15.01" y2="9"/>
  </symbol>

  <symbol id="icon-difficulty-medium" viewBox="0 0 24 24" fill="none"
          stroke="currentColor" stroke-width="2"
          stroke-linecap="round" stroke-linejoin="round">
    <circle cx="12" cy="12" r="9"/>
    <line x1="8"  y1="14" x2="16" y2="14"/>
    <line x1="9"  y1="9"  x2="9.01"  y2="9"/>
    <line x1="15" y1="9"  x2="15.01" y2="9"/>
  </symbol>

  <symbol id="icon-difficulty-hard" viewBox="0 0 24 24" fill="none"
          stroke="currentColor" stroke-width="2"
          stroke-linecap="round" stroke-linejoin="round">
    <circle cx="12" cy="12" r="9"/>
    <path d="M16 14s-1.5-2-4-2-4 2-4 2"/>
    <line x1="9"  y1="9"  x2="9.01"  y2="9"/>
    <line x1="15" y1="9"  x2="15.01" y2="9"/>
  </symbol>

  <!-- ═══════════════════════════════════════════
       ACTION AND UI ICONS
  ═══════════════════════════════════════════ -->

  <symbol id="icon-filter" viewBox="0 0 24 24" fill="none"
          stroke="currentColor" stroke-width="2"
          stroke-linecap="round" stroke-linejoin="round">
    <polygon points="22 3 2 3 10 12.46 10 19 14 21 14 12.46 22 3"/>
  </symbol>

  <symbol id="icon-sort" viewBox="0 0 24 24" fill="none"
          stroke="currentColor" stroke-width="2"
          stroke-linecap="round" stroke-linejoin="round">
    <line x1="3"  y1="6"  x2="21" y2="6"/>
    <line x1="3"  y1="12" x2="15" y2="12"/>
    <line x1="3"  y1="18" x2="9"  y2="18"/>
  </symbol>

  <symbol id="icon-reset" viewBox="0 0 24 24" fill="none"
          stroke="currentColor" stroke-width="2"
          stroke-linecap="round" stroke-linejoin="round">
    <polyline points="1 4 1 10 7 10"/>
    <path d="M3.51 15a9 9 0 1 0 .49-4.5"/>
  </symbol>

  <symbol id="icon-export" viewBox="0 0 24 24" fill="none"
          stroke="currentColor" stroke-width="2"
          stroke-linecap="round" stroke-linejoin="round">
    <path d="M21 15v4a2 2 0 0 1-2 2H5a2 2 0 0 1-2-2v-4"/>
    <polyline points="17 8 12 3 7 8"/>
    <line x1="12" y1="3" x2="12" y2="15"/>
  </symbol>

  <symbol id="icon-delete" viewBox="0 0 24 24" fill="none"
          stroke="currentColor" stroke-width="2"
          stroke-linecap="round" stroke-linejoin="round">
    <polyline points="3 6 5 6 21 6"/>
    <path d="M19 6l-1 14a2 2 0 0 1-2 2H8a2 2 0 0 1-2-2L5 6"/>
    <path d="M10 11v6M14 11v6"/>
    <path d="M9 6V4a1 1 0 0 1 1-1h4a1 1 0 0 1 1 1v2"/>
  </symbol>

  <symbol id="icon-edit" viewBox="0 0 24 24" fill="none"
          stroke="currentColor" stroke-width="2"
          stroke-linecap="round" stroke-linejoin="round">
    <path d="M11 4H4a2 2 0 0 0-2 2v14a2 2 0 0 0 2 2h14a2 2 0 0 0 2-2v-7"/>
    <path d="M18.5 2.5a2.121 2.121 0 0 1 3 3L12 15l-4 1 1-4 9.5-9.5z"/>
  </symbol>

  <symbol id="icon-expand" viewBox="0 0 24 24" fill="none"
          stroke="currentColor" stroke-width="2"
          stroke-linecap="round" stroke-linejoin="round">
    <polyline points="15 3 21 3 21 9"/>
    <polyline points="9 21 3 21 3 15"/>
    <line x1="21" y1="3"  x2="14" y2="10"/>
    <line x1="3"  y1="21" x2="10" y2="14"/>
  </symbol>

  <symbol id="icon-collapse" viewBox="0 0 24 24" fill="none"
          stroke="currentColor" stroke-width="2"
          stroke-linecap="round" stroke-linejoin="round">
    <polyline points="4 14 10 14 10 20"/>
    <polyline points="20 10 14 10 14 4"/>
    <line x1="10" y1="14" x2="3"  y2="21"/>
    <line x1="21" y1="3"  x2="14" y2="10"/>
  </symbol>

  <symbol id="icon-info" viewBox="0 0 24 24" fill="none"
          stroke="currentColor" stroke-width="2"
          stroke-linecap="round" stroke-linejoin="round">
    <circle cx="12" cy="12" r="10"/>
    <line x1="12" y1="8"  x2="12" y2="8.5" stroke-width="2.5"/>
    <line x1="12" y1="12" x2="12" y2="16"/>
  </symbol>

  <symbol id="icon-warning" viewBox="0 0 24 24" fill="none"
          stroke="currentColor" stroke-width="2"
          stroke-linecap="round" stroke-linejoin="round">
    <path d="M10.29 3.86L1.82 18a2 2 0 0 0 1.71 3h16.94
             a2 2 0 0 0 1.71-3L13.71 3.86a2 2 0 0 0-3.42 0z"/>
    <line x1="12" y1="9"  x2="12" y2="13"/>
    <line x1="12" y1="17" x2="12" y2="17.5" stroke-width="2.5"/>
  </symbol>

  <symbol id="icon-success" viewBox="0 0 24 24" fill="none"
          stroke="currentColor" stroke-width="2"
          stroke-linecap="round" stroke-linejoin="round">
    <circle cx="12" cy="12" r="10"/>
    <polyline points="8 12 11 15 16 9"/>
  </symbol>

  <symbol id="icon-error" viewBox="0 0 24 24" fill="none"
          stroke="currentColor" stroke-width="2"
          stroke-linecap="round" stroke-linejoin="round">
    <circle cx="12" cy="12" r="10"/>
    <line x1="15" y1="9"  x2="9"  y2="15"/>
    <line x1="9"  y1="9"  x2="15" y2="15"/>
  </symbol>

  <symbol id="icon-lock" viewBox="0 0 24 24" fill="none"
          stroke="currentColor" stroke-width="2"
          stroke-linecap="round" stroke-linejoin="round">
    <rect x="3" y="11" width="18" height="11" rx="2"/>
    <path d="M7 11V7a5 5 0 0 1 10 0v4"/>
    <circle cx="12" cy="16" r="1" fill="currentColor"/>
  </symbol>

  <symbol id="icon-unlock" viewBox="0 0 24 24" fill="none"
          stroke="currentColor" stroke-width="2"
          stroke-linecap="round" stroke-linejoin="round">
    <rect x="3" y="11" width="18" height="11" rx="2"/>
    <path d="M7 11V7a5 5 0 0 1 9.9-1"/>
    <circle cx="12" cy="16" r="1" fill="currentColor"/>
  </symbol>

  <symbol id="icon-dark-mode" viewBox="0 0 24 24" fill="none"
          stroke="currentColor" stroke-width="2"
          stroke-linecap="round" stroke-linejoin="round">
    <path d="M21 12.79A9 9 0 1 1 11.21 3
             a7 7 0 0 0 9.79 9.79z"/>
  </symbol>

  <symbol id="icon-light-mode" viewBox="0 0 24 24" fill="none"
          stroke="currentColor" stroke-width="2"
          stroke-linecap="round" stroke-linejoin="round">
    <circle cx="12" cy="12" r="5"/>
    <line x1="12" y1="1"  x2="12" y2="3"/>
    <line x1="12" y1="21" x2="12" y2="23"/>
    <line x1="4.22" y1="4.22"   x2="5.64"  y2="5.64"/>
    <line x1="18.36" y1="18.36" x2="19.78" y2="19.78"/>
    <line x1="1"  y1="12" x2="3"  y2="12"/>
    <line x1="21" y1="12" x2="23" y2="12"/>
    <line x1="4.22"  y1="19.78" x2="5.64"  y2="18.36"/>
    <line x1="18.36" y1="5.64"  x2="19.78" y2="4.22"/>
  </symbol>

  <symbol id="icon-chevron-up" viewBox="0 0 24 24" fill="none"
          stroke="currentColor" stroke-width="2"
          stroke-linecap="round" stroke-linejoin="round">
    <polyline points="18 15 12 9 6 15"/>
  </symbol>

  <symbol id="icon-chevron-down" viewBox="0 0 24 24" fill="none"
          stroke="currentColor" stroke-width="2"
          stroke-linecap="round" stroke-linejoin="round">
    <polyline points="6 9 12 15 18 9"/>
  </symbol>

  <symbol id="icon-chevron-left" viewBox="0 0 24 24" fill="none"
          stroke="currentColor" stroke-width="2"
          stroke-linecap="round" stroke-linejoin="round">
    <polyline points="15 18 9 12 15 6"/>
  </symbol>

  <symbol id="icon-chevron-right" viewBox="0 0 24 24" fill="none"
          stroke="currentColor" stroke-width="2"
          stroke-linecap="round" stroke-linejoin="round">
    <polyline points="9 18 15 12 9 6"/>
  </symbol>

  <symbol id="icon-dots-vertical" viewBox="0 0 24 24" fill="none"
          stroke="currentColor" stroke-width="2"
          stroke-linecap="round" stroke-linejoin="round">
    <circle cx="12" cy="5"  r="1" fill="currentColor"/>
    <circle cx="12" cy="12" r="1" fill="currentColor"/>
    <circle cx="12" cy="19" r="1" fill="currentColor"/>
  </symbol>

  <symbol id="icon-checkbox-empty" viewBox="0 0 24 24" fill="none"
          stroke="currentColor" stroke-width="2"
          stroke-linecap="round" stroke-linejoin="round">
    <rect x="3" y="3" width="18" height="18" rx="2"/>
  </symbol>

  <symbol id="icon-checkbox-filled" viewBox="0 0 24 24" fill="none"
          stroke="currentColor" stroke-width="2"
          stroke-linecap="round" stroke-linejoin="round">
    <rect x="3" y="3" width="18" height="18" rx="2"/>
    <polyline points="7 12 10.5 15.5 17 8.5"/>
  </symbol>

  <symbol id="icon-radio-empty" viewBox="0 0 24 24" fill="none"
          stroke="currentColor" stroke-width="2"
          stroke-linecap="round" stroke-linejoin="round">
    <circle cx="12" cy="12" r="9"/>
  </symbol>

  <symbol id="icon-radio-filled" viewBox="0 0 24 24" fill="none"
          stroke="currentColor" stroke-width="2"
          stroke-linecap="round" stroke-linejoin="round">
    <circle cx="12" cy="12" r="9"/>
    <circle cx="12" cy="12" r="4" fill="currentColor"/>
  </symbol>

  <symbol id="icon-note" viewBox="0 0 24 24" fill="none"
          stroke="currentColor" stroke-width="2"
          stroke-linecap="round" stroke-linejoin="round">
    <path d="M14 2H6a2 2 0 0 0-2 2v16a2 2 0 0 0 2 2h12
             a2 2 0 0 0 2-2V8z"/>
    <polyline points="14 2 14 8 20 8"/>
    <line x1="8"  y1="13" x2="16" y2="13"/>
    <line x1="8"  y1="17" x2="12" y2="17"/>
  </symbol>

  <symbol id="icon-paper" viewBox="0 0 24 24" fill="none"
          stroke="currentColor" stroke-width="2"
          stroke-linecap="round" stroke-linejoin="round">
    <path d="M14 2H6a2 2 0 0 0-2 2v16a2 2 0 0 0 2 2h12
             a2 2 0 0 0 2-2V8z"/>
    <polyline points="14 2 14 8 20 8"/>
    <line x1="8"  y1="13" x2="16" y2="13"/>
    <line x1="8"  y1="17" x2="16" y2="17"/>
    <line x1="8"  y1="9"  x2="10" y2="9"/>
  </symbol>

</svg>